<svg width="24" height="24" viewBox="0 0 24 24" fill="none" xmlns="http://www.w3.org/2000/svg">
<path d="M9.39258 5.75293C9.48732 5.65819 9.65136 5.65819 9.74609 5.75293C9.8288 5.83585 9.83948 5.97142 9.77734 6.06738L9.74609 6.10547L3.85254 11.999L9.74609 17.8926C9.84068 17.9872 9.84049 18.1503 9.74609 18.2451L9.74023 18.252L9.73438 18.2578C9.70413 18.2902 9.6447 18.3193 9.56934 18.3193C9.52102 18.3193 9.47524 18.3061 9.43359 18.2783L9.39258 18.2451L3.32324 12.1758C3.24037 12.0929 3.22988 11.9574 3.29199 11.8613L3.32324 11.8223L9.39258 5.75293Z" fill="white" stroke="white"/>
<path d="M3.66992 11.75H20.5C20.6338 11.75 20.75 11.8662 20.75 12C20.75 12.1338 20.6338 12.25 20.5 12.25H3.66992C3.53606 12.25 3.41992 12.1339 3.41992 12C3.41992 11.8661 3.53606 11.75 3.66992 11.75Z" fill="white" stroke="white"/>
</svg>
